# xmcd
#
# Track frame offsets:
#	150
#	14866
#	33513
#	47533
#	64263
#	79115
#	98510
#	112439
#	126533
#	139844
#	155991
#	172181
#
# Disc length: 2533 seconds
#
# Revision: 1
# Processed by: cddbd v1.5.2PL0 Copyright (c) Steve Scherf et al.
# Submitted via: audiograbber 1.83.01
#
DISCID=b709e30c
DTITLE=Eric Dodge - Why Not Today
DYEAR=2007
DGENRE=Country
TTITLE0=You Won't Be Lonely
TTITLE1=Why Not Today
TTITLE2=It's A Good Thing
TTITLE3=Life Is For The Living
TTITLE4=Everybody Wants To Be Loved
TTITLE5=The Last Real Cowboy
TTITLE6=What Turns You On
TTITLE7=What Some People Throw Away
TTITLE8=It All Comes Back To Me
TTITLE9=Too Much To Believe
TTITLE10=It's A Woman's World
TTITLE11=I Pledge
EXTD=
EXTT0=
EXTT1=
EXTT2=
EXTT3=
EXTT4=
EXTT5=
EXTT6=
EXTT7=
EXTT8=
EXTT9=
EXTT10=
EXTT11=
PLAYORDER=
